# xmcd
#
# Track frame offsets: 
#        150
#        13032
#        23123
#        35519
#        49325
#        57124
#        67542
#        78944
#        90048
#        102165
#        112092
#        121072
#        131945
#        142760
#        151968
#        162481
#        172339
#        180476
#        189100
#        199259
#        209424
#        219513
#
# Disc length: 3036 seconds
#
# Revision: 0
# Processed by: cddbd v1.5.2PL0 Copyright (c) Steve Scherf et al.
# Submitted via: ExactAudioCopyFreeDBPlugin 1.0
#
DISCID=250bda16
DTITLE=Johnny Cash - Icons [CD1)
DYEAR=2009
DGENRE=Country
TTITLE0=Folsom Prison Blues
TTITLE1=Ballad Of A Teenage Queen
TTITLE2=I Walk The Line
TTITLE3=Don't Take Your Guns To Town
TTITLE4=Come In Stranger
TTITLE5=The Ways Of A Woman In Love
TTITLE6=I'd Rather Die Young
TTITLE7=Cry, Cry, Cry
TTITLE8=Home Of The Blues
TTITLE9=Rock Island Line
TTITLE10=Pickin' Time
TTITLE11=Train Of Love
TTITLE12=I Just Thought You'd Like To Know
TTITLE13=Remember Me (I'm The One Who Loves You)
TTITLE14=Frankie's Man, Johnny
TTITLE15=It's Just About Time
TTITLE16=I Can't Help It (If I'm Still In Love With You)
TTITLE17=That's All Over
TTITLE18=Hey Porter!
TTITLE19=Shepherd Of My Heart
TTITLE20=Get Rhythm
TTITLE21=Guess Things Happen That Way
EXTD=
EXTT0=
EXTT1=
EXTT2=
EXTT3=
EXTT4=
EXTT5=
EXTT6=
EXTT7=
EXTT8=
EXTT9=
EXTT10=
EXTT11=
EXTT12=
EXTT13=
EXTT14=
EXTT15=
EXTT16=
EXTT17=
EXTT18=
EXTT19=
EXTT20=
EXTT21=
PLAYORDER=
